<?xml version="1.0" encoding="UTF-8"?>
<svg width="128pt" height="128pt" version="1.1" viewBox="0 0 128 128" xmlns="http://www.w3.org/2000/svg">
 <path d="m64 4c-15.914 0-31.176 6.3203-42.426 17.574-11.254 11.25-17.574 26.512-17.574 42.426s6.3203 31.176 17.574 42.426c11.25 11.254 26.512 17.574 42.426 17.574s31.176-6.3203 42.426-17.574c11.254-11.25 17.574-26.512 17.574-42.426-0.019531-15.906-6.3438-31.156-17.594-42.406s-26.5-17.574-42.406-17.594zm-14 74c0 2.2109-1.7891 4-4 4s-4-1.7891-4-4v-28c0-2.2109 1.7891-4 4-4s4 1.7891 4 4zm36 0c0 2.2109-1.7891 4-4 4s-4-1.7891-4-4v-28c0-2.2109 1.7891-4 4-4s4 1.7891 4 4z" fill="#fff"/>
</svg>
