<?xml version="1.0" encoding="UTF-8"?>
<!-- Generated by Pixelmator Pro 3.6.14 -->
<svg width="472" height="459" viewBox="0 0 472 459" xmlns="http://www.w3.org/2000/svg">
    <path id="Rounded-Rectangle-copy" fill="none" stroke="#000000" stroke-width="18" stroke-linecap="round" stroke-linejoin="round" d="M 9 410 C 9 432.0914 26.908609 450 49 450 L 423.002472 450 C 445.093842 450 463.002472 432.0914 463.002472 410 L 463.002472 49 C 463.002472 26.9086 445.093842 9 423.002472 9 L 49 9 C 26.908609 9 9 26.9086 9 49 Z"/>
    <path id="-" fill="#000000" fill-rule="evenodd" stroke="none" d="M 149.086914 313.195984 L 178.875977 313.195984 L 178.875977 309.10907 C 178.875977 305.294617 179.678207 302.433777 181.282715 300.52655 C 182.887222 298.619324 185.354477 297.272156 188.68457 296.485046 C 190.500992 296.061218 195.480911 295.819031 203.624512 295.758484 C 211.768112 295.697937 218.170868 294.850281 222.833008 293.215515 C 226.405289 292.004578 229.281235 290.279022 231.460938 288.038757 C 233.095718 286.343445 234.760727 283.558319 236.456055 279.683289 C 238.333023 283.73996 240.285629 286.752136 242.313965 288.71991 C 244.3423 290.687683 247.430161 292.367859 251.577637 293.760437 C 255.725113 295.153015 262.339783 295.849304 271.421875 295.849304 C 279.595734 295.849304 284.923828 296.273132 287.40625 297.120789 C 289.888672 297.968445 291.644531 299.37616 292.673828 301.343933 C 293.703125 303.311707 294.217773 307.26239 294.217773 313.195984 L 323.643555 313.195984 L 323.643555 301.752625 C 323.643555 289.945923 322.356934 281.560272 319.783691 276.595398 C 317.210449 271.630554 313.456573 268.088562 308.521973 265.969421 C 303.587372 263.850281 296.185608 262.79071 286.316406 262.79071 C 284.136719 262.79071 281.957031 262.851257 279.777344 262.972351 C 278.445313 263.032898 277.083008 263.063171 275.69043 263.063171 C 268.666962 263.063171 263.671875 262.427429 260.705078 261.155945 C 257.738281 259.88446 255.588867 258.052948 254.256836 255.661331 C 252.924805 253.269714 252.198242 249.803436 252.077148 245.262405 L 220.925781 245.262405 C 220.925781 249.92453 220.199219 253.421082 218.746094 255.752151 C 217.292969 258.083221 215.067886 259.854187 212.070801 261.065125 C 209.073715 262.276062 204.00296 262.881531 196.858398 262.881531 L 193.770508 262.881531 C 192.37793 262.820984 190.985352 262.79071 189.592773 262.79071 C 178.875916 262.79071 171.126007 263.683777 166.342773 265.46991 C 161.55954 267.256042 157.8965 269.723328 155.353516 272.871765 C 153.416 275.233124 151.962891 278.442078 150.994141 282.498718 C 149.722656 287.887451 149.086914 294.032898 149.086914 300.935242 Z M 149.086914 342.20401 L 178.875977 342.20401 L 178.875977 346.290924 C 178.875977 350.105408 179.678207 352.966187 181.282715 354.873444 C 182.887222 356.78067 185.354477 358.127838 188.68457 358.914948 C 190.500992 359.338776 195.480911 359.580963 203.624512 359.64151 C 211.768112 359.702057 218.170868 360.549683 222.833008 362.184479 C 226.405289 363.395416 229.281235 365.120972 231.460938 367.361237 C 233.095718 369.056549 234.760727 371.841675 236.456055 375.716705 C 238.333023 371.660034 240.285629 368.647858 242.313965 366.680084 C 244.3423 364.71228 247.430161 363.032135 251.577637 361.639557 C 255.725113 360.246948 262.339783 359.55069 271.421875 359.55069 C 279.595734 359.55069 284.923828 359.126862 287.40625 358.279205 C 289.888672 357.431549 291.644531 356.023834 292.673828 354.056061 C 293.703125 352.088257 294.217773 348.137634 294.217773 342.20401 L 323.643555 342.20401 L 323.643555 353.647369 C 323.643555 365.454071 322.356934 373.839722 319.783691 378.804596 C 317.210449 383.76947 313.456573 387.311401 308.521973 389.430573 C 303.587372 391.549713 296.185608 392.609283 286.316406 392.609283 C 284.136719 392.609283 281.957031 392.548737 279.777344 392.427643 C 278.445313 392.367096 277.083008 392.336823 275.69043 392.336823 C 268.666962 392.336823 263.671875 392.972534 260.705078 394.244049 C 257.738281 395.515533 255.588867 397.347046 254.256836 399.738678 C 252.924805 402.13028 252.198242 405.596558 252.077148 410.137604 L 220.925781 410.137604 C 220.925781 405.475464 220.199219 401.978912 218.746094 399.647858 C 217.292969 397.316772 215.067886 395.545807 212.070801 394.334869 C 209.073715 393.123901 204.00296 392.518463 196.858398 392.518463 L 193.770508 392.518463 C 192.37793 392.57901 190.985352 392.609283 189.592773 392.609283 C 178.875916 392.609283 171.126007 391.716217 166.342773 389.930084 C 161.55954 388.143921 157.8965 385.676697 155.353516 382.528229 C 153.416 380.16687 151.962891 376.957947 150.994141 372.901276 C 149.722656 367.512573 149.086914 361.367126 149.086914 354.464752 Z"/>
    <path id="path1" fill="#000000" fill-rule="evenodd" stroke="none" d="M 275.5 61 L 355.5 61 L 355.5 221 L 275.5 221 L 275.5 201 L 315.5 201 L 315.5 81 L 275.5 81 L 275.5 61 Z M 115.5 61 L 195.5 61 L 195.5 81 L 155.5 81 L 155.5 201 L 195.5 201 L 195.5 221 L 115.5 221 L 115.5 61 Z"/>
</svg>
