<?xml version="1.0" encoding="UTF-8"?>
<!-- Generated by Pixelmator Pro 3.6.14 -->
<svg width="472" height="459" viewBox="0 0 472 459" xmlns="http://www.w3.org/2000/svg">
    <path id="Rounded-Rectangle-copy" fill="none" stroke="#000000" stroke-width="18" stroke-linecap="round" stroke-linejoin="round" d="M 9 410 C 9 432.0914 26.908609 450 49 450 L 423.002472 450 C 445.093842 450 463.002472 432.0914 463.002472 410 L 463.002472 49 C 463.002472 26.9086 445.093842 9 423.002472 9 L 49 9 C 26.908609 9 9 26.9086 9 49 Z"/>
    <path id="out-let" fill="#000000" fill-rule="evenodd" stroke="none" d="M 361.966492 253.420898 L 361.966492 288.046875 L 403.670105 288.046875 L 403.670105 312.546387 L 361.966492 312.546387 L 361.966492 370.256348 C 361.966492 375.700714 363.29126 379.602448 365.940857 381.96167 C 368.590454 384.320892 373.000305 385.500488 379.170593 385.500488 L 403.670105 385.500488 L 403.670105 410 L 376.883972 410 C 358.590912 410 346.214233 407.078247 339.753601 401.234619 C 333.292938 395.390991 330.062683 384.556885 330.062683 368.731934 L 330.062683 312.546387 L 298.921082 312.546387 L 298.921082 288.046875 L 330.062683 288.046875 L 330.062683 253.420898 Z M 290.410492 404.01123 C 283.006165 407.060059 275.456757 409.34668 267.762054 410.871094 C 260.067352 412.395508 251.937225 413.157715 243.371429 413.157715 C 222.973206 413.157715 207.384415 407.695282 196.604584 396.770264 C 185.824738 385.845245 180.434906 370.111267 180.434906 349.567871 C 180.434906 329.677795 185.625122 313.961975 196.005707 302.419922 C 206.386292 290.877869 220.541428 285.106934 238.471527 285.106934 C 256.546814 285.106934 270.57489 290.46048 280.556244 301.167725 C 290.537567 311.874969 295.528168 326.955627 295.528168 346.410156 L 295.528168 359.367676 L 212.883148 359.367676 C 212.955734 368.949768 215.786758 376.099915 221.376312 380.818359 C 226.965851 385.536804 235.313751 387.895996 246.420258 387.895996 C 253.751999 387.895996 260.974731 386.843445 268.088715 384.738281 C 275.202698 382.633118 282.643188 379.293976 290.410492 374.720703 Z M 263.406586 335.412598 C 263.261414 326.992004 261.101837 320.622192 256.927826 316.302979 C 252.753815 311.983765 246.601776 309.824219 238.471527 309.824219 C 231.139786 309.824219 225.296249 312.056396 220.940765 316.520752 C 216.585266 320.985107 214.008316 327.318665 213.209808 335.521484 Z M 96.13916 359.149902 L 96.13916 265.071777 L 63.799805 265.071777 L 63.799805 240.572266 L 128.042969 240.572266 L 128.042969 359.149902 C 128.042969 368.731995 129.531067 375.519196 132.507324 379.511719 C 135.483582 383.504242 140.52861 385.500488 147.642578 385.500488 L 173.12207 385.500488 L 173.12207 410 L 138.713867 410 C 123.542244 410 112.653679 406.080109 106.047852 398.240234 C 99.442024 390.40036 96.13916 377.370361 96.13916 359.149902 Z M 361.966492 45.420898 L 361.966492 80.046875 L 403.670105 80.046875 L 403.670105 104.546387 L 361.966492 104.546387 L 361.966492 162.256348 C 361.966492 167.700714 363.29126 171.602448 365.940857 173.96167 C 368.590454 176.320892 373.000305 177.500488 379.170593 177.500488 L 403.670105 177.500488 L 403.670105 202 L 376.883972 202 C 358.590912 202 346.214233 199.078247 339.753601 193.234619 C 333.292938 187.390991 330.062683 176.556885 330.062683 160.731934 L 330.062683 104.546387 L 298.921082 104.546387 L 298.921082 80.046875 L 330.062683 80.046875 L 330.062683 45.420898 Z M 187.839203 159.425293 L 187.839203 80.046875 L 219.743011 80.046875 L 219.743011 154.525391 C 219.743011 163.30896 220.977051 169.588043 223.44516 173.362793 C 225.913269 177.137543 230.014633 179.024902 235.749359 179.024902 C 241.484085 179.024902 245.966537 176.484222 249.196869 171.402832 C 252.427185 166.321442 254.042328 159.20755 254.042328 150.061035 L 254.042328 80.046875 L 285.946136 80.046875 L 285.946136 202 L 254.042328 202 L 254.042328 183.924805 C 251.791992 190.675812 247.962845 195.902313 242.554779 199.604492 C 237.146713 203.306671 230.631714 205.157715 223.009613 205.157715 C 211.394974 205.157715 202.629669 201.310425 196.71347 193.615723 C 190.797256 185.921021 187.839203 174.524323 187.839203 159.425293 Z M 121.074219 103.021973 C 113.45211 103.021973 107.463402 106.379272 103.10791 113.093994 C 98.752419 119.808716 96.574707 129.154724 96.574707 141.132324 C 96.574707 153.109924 98.752419 162.455933 103.10791 169.170654 C 107.463402 175.885376 113.45211 179.242676 121.074219 179.242676 C 128.768921 179.242676 134.793915 175.885376 139.149414 169.170654 C 143.504913 162.455933 145.682617 153.109924 145.682617 141.132324 C 145.682617 129.154724 143.504913 119.808716 139.149414 113.093994 C 134.793915 106.379272 128.768921 103.021973 121.074219 103.021973 Z M 64.670898 141.132324 C 64.670898 121.460022 69.770378 105.871246 79.969482 94.365479 C 90.168594 82.859711 103.870026 77.106934 121.074219 77.106934 C 138.350998 77.106934 152.088745 82.859711 162.287842 94.365479 C 172.486938 105.871246 177.586426 121.460022 177.586426 141.132324 C 177.586426 160.804626 172.486938 176.393402 162.287842 187.89917 C 152.088745 199.404938 138.350998 205.157715 121.074219 205.157715 C 103.870026 205.157715 90.168594 199.404938 79.969482 187.89917 C 69.770378 176.393402 64.670898 160.804626 64.670898 141.132324 Z"/>
</svg>
